<svg width="368" height="160" viewBox="0 0 368 160" fill="none" xmlns="http://www.w3.org/2000/svg">
<rect width="368" height="160" rx="24" fill="#004B50"/>
<path d="M124.184 31.0001L124.191 19.4384L126.918 19.4387L126.919 28.7376L131.74 28.7381L131.74 31.0008L124.184 31.0001ZM138.13 31.1614C137.011 31.1613 136.041 30.9213 135.22 30.4415C134.404 29.9563 133.773 29.2713 133.325 28.3864C132.877 27.5015 132.653 26.4541 132.653 25.2441C132.653 24.0234 132.879 22.968 133.332 22.0779C133.785 21.1877 134.422 20.5002 135.243 20.0152C136.069 19.5248 137.031 19.2797 138.129 19.2798C139.227 19.28 140.182 19.5252 140.992 20.0157C141.807 20.5009 142.439 21.1886 142.887 22.0788C143.34 22.969 143.567 24.0245 143.567 25.2451C143.567 26.4551 143.346 27.5025 142.904 28.3874C142.461 29.2722 141.832 29.9571 141.017 30.4421C140.201 30.9217 139.239 31.1615 138.13 31.1614ZM138.13 28.9546C138.626 28.9546 139.06 28.8347 139.433 28.5949C139.807 28.3497 140.094 27.958 140.297 27.4196C140.505 26.8813 140.609 26.1697 140.608 25.2848C140.608 24.3733 140.504 23.6404 140.296 23.086C140.089 22.5263 139.798 22.1211 139.425 21.8706C139.052 21.6147 138.62 21.4867 138.129 21.4866C137.634 21.4866 137.199 21.6145 136.826 21.8703C136.453 22.1261 136.16 22.5339 135.947 23.0936C135.739 23.6479 135.635 24.3782 135.635 25.2843C135.635 26.1692 135.739 26.8808 135.947 27.4192C136.16 27.9576 136.454 28.3494 136.827 28.5947C137.2 28.8346 137.634 28.9545 138.13 28.9546ZM150.222 31.1626C149.145 31.1625 148.205 30.9172 147.4 30.4267C146.6 29.9362 145.979 29.2485 145.536 28.3636C145.099 27.4787 144.881 26.4446 144.881 25.2612C144.88 24.0459 145.112 22.9905 145.576 22.095C146.04 21.1996 146.684 20.5067 147.511 20.0164C148.337 19.526 149.294 19.2809 150.381 19.281C151.111 19.2811 151.772 19.3958 152.364 19.625C152.961 19.849 153.473 20.1555 153.899 20.5447C154.331 20.9339 154.664 21.3763 154.899 21.8721C155.133 22.3625 155.259 22.8716 155.275 23.3993L152.42 23.399C152.346 23.0578 152.218 22.7487 152.036 22.4715C151.86 22.1889 151.626 21.965 151.333 21.7998C151.045 21.6345 150.706 21.5518 150.317 21.5518C149.869 21.5518 149.459 21.669 149.086 21.9035C148.713 22.138 148.414 22.5217 148.191 23.0548C147.967 23.5825 147.855 24.2914 147.855 25.1816C147.855 25.9172 147.93 26.5195 148.079 26.9886C148.234 27.4577 148.436 27.8229 148.687 28.0841C148.937 28.3453 149.214 28.5292 149.518 28.6359C149.822 28.7372 150.126 28.7878 150.43 28.7879C150.712 28.7879 150.966 28.7426 151.189 28.652C151.419 28.5614 151.616 28.4442 151.781 28.3003C151.952 28.1564 152.09 27.9991 152.197 27.8286C152.303 27.658 152.373 27.4874 152.405 27.3169L152.525 26.7572L150.318 26.757L150.318 24.902L155.387 24.9265L155.387 31.0031L153.564 31.003L153.564 29.6117C153.372 29.8409 153.135 30.0754 152.853 30.3153C152.576 30.5551 152.226 30.7576 151.805 30.9228C151.384 31.0827 150.856 31.1626 150.222 31.1626ZM162.68 31.1638C161.56 31.1637 160.59 30.9237 159.769 30.4439C158.953 29.9587 158.322 29.2737 157.874 28.3888C157.426 27.5039 157.202 26.4565 157.202 25.2465C157.202 24.0258 157.428 22.9704 157.881 22.0802C158.334 21.1901 158.971 20.5025 159.792 20.0175C160.618 19.5272 161.58 19.2821 162.678 19.2822C163.776 19.2823 164.731 19.5276 165.541 20.0181C166.357 20.5033 166.988 21.1909 167.436 22.0812C167.889 22.9714 168.116 24.0268 168.116 25.2475C168.116 26.4575 167.895 27.5049 167.453 28.3897C167.01 29.2745 166.381 29.9594 165.566 30.4444C164.75 30.9241 163.788 31.1639 162.68 31.1638ZM162.679 28.957C163.175 28.957 163.609 28.8371 163.983 28.5973C164.356 28.3521 164.643 27.9604 164.846 27.422C165.054 26.8837 165.158 26.1721 165.158 25.2872C165.158 24.3757 165.054 23.6428 164.846 23.0884C164.638 22.5287 164.347 22.1235 163.974 21.8729C163.601 21.617 163.169 21.4891 162.679 21.489C162.183 21.489 161.748 21.6169 161.375 21.8727C161.002 22.1285 160.709 22.5363 160.496 23.0959C160.288 23.6503 160.184 24.3805 160.184 25.2867C160.184 26.1716 160.288 26.8832 160.496 27.4216C160.71 27.96 161.003 28.3518 161.376 28.597C161.749 28.8369 162.184 28.9569 162.679 28.957Z" fill="white"/>
<line y1="-0.796007" x2="18.4468" y2="-0.796007" transform="matrix(5.9785e-05 1 -1 -6.08428e-05 176.094 16.0796)" stroke="white" stroke-width="1.59201"/>
<path d="M187.651 28.1004C186.998 28.1003 186.438 27.9502 185.971 27.6502C185.504 27.3468 185.146 26.9168 184.896 26.3601C184.649 25.8001 184.526 25.1301 184.526 24.3501C184.525 23.5734 184.649 22.9117 184.895 22.3651C185.142 21.8151 185.499 21.3951 185.965 21.1052C186.432 20.8152 186.994 20.6703 187.65 20.6704C188.17 20.6704 188.632 20.7771 189.035 20.9905C189.439 21.2039 189.762 21.4906 190.005 21.8506C190.252 22.2106 190.399 22.609 190.445 23.0456L189.305 23.0455C189.255 22.7722 189.159 22.5255 189.015 22.3055C188.875 22.0821 188.689 21.9071 188.455 21.7804C188.222 21.6504 187.945 21.5854 187.625 21.5854C187.215 21.5853 186.867 21.6819 186.58 21.8753C186.294 22.0686 186.075 22.3702 185.925 22.7802C185.779 23.1902 185.705 23.7185 185.706 24.3652C185.706 25.3418 185.871 26.0568 186.201 26.5102C186.531 26.9602 187.006 27.1853 187.626 27.1854C187.946 27.1854 188.222 27.1171 188.456 26.9804C188.689 26.8405 188.876 26.6555 189.016 26.4255C189.159 26.1922 189.256 25.9388 189.306 25.6655L190.446 25.6656C190.406 25.9823 190.322 26.2873 190.196 26.5806C190.069 26.8706 189.892 27.1306 189.666 27.3606C189.443 27.5905 189.164 27.7722 188.831 27.9055C188.498 28.0354 188.104 28.1004 187.651 28.1004ZM194.684 28.101C194.027 28.101 193.459 27.9559 192.979 27.6659C192.502 27.3725 192.134 26.9508 191.874 26.4008C191.617 25.8474 191.489 25.1807 191.488 24.4007C191.488 23.6141 191.618 22.9441 191.878 22.3908C192.142 21.8341 192.512 21.4092 192.988 21.1159C193.468 20.8193 194.033 20.671 194.683 20.671C195.33 20.6711 195.89 20.8195 196.363 21.1162C196.84 21.4096 197.207 21.8346 197.463 22.3913C197.723 22.9447 197.853 23.6147 197.853 24.4013C197.854 25.1813 197.725 25.8463 197.469 26.3963C197.212 26.9463 196.845 27.3679 196.369 27.6612C195.895 27.9545 195.334 28.1011 194.684 28.101ZM194.684 27.186C195.104 27.1861 195.462 27.0894 195.759 26.8961C196.059 26.7028 196.287 26.4012 196.444 25.9912C196.6 25.5812 196.679 25.0562 196.678 24.4162C196.678 23.7596 196.598 23.2229 196.438 22.8062C196.282 22.3895 196.053 22.0828 195.753 21.8861C195.457 21.6861 195.1 21.5861 194.683 21.586C194.267 21.586 193.907 21.686 193.603 21.8859C193.303 22.0859 193.072 22.3942 192.908 22.8109C192.745 23.2275 192.663 23.7625 192.663 24.4158C192.664 25.0592 192.745 25.5858 192.909 25.9959C193.072 26.4025 193.304 26.7026 193.604 26.8959C193.907 27.0893 194.267 27.186 194.684 27.186ZM199.291 28.0015L199.29 20.7715L200.8 20.7716L202.836 26.5218L204.9 20.772L206.4 20.7722L206.401 28.0022L205.306 28.0021L205.305 22.2421L203.306 28.0019L202.371 28.0018L200.38 22.2866L200.381 28.0016L199.291 28.0015ZM208.226 28.0024L208.226 20.7724L210.731 20.7726C211.247 20.7726 211.709 20.861 212.116 21.0377C212.526 21.2144 212.847 21.4745 213.081 21.8178C213.318 22.1612 213.436 22.5829 213.436 23.0829C213.436 23.5629 213.328 23.9728 213.111 24.3128C212.898 24.6495 212.598 24.9078 212.211 25.0877C211.828 25.2644 211.383 25.3527 210.876 25.3526L209.316 25.3525L209.316 28.0025L208.226 28.0024ZM209.311 24.4775L210.846 24.4776C211.306 24.4777 211.681 24.346 211.971 24.0827C212.261 23.8161 212.406 23.4628 212.406 23.0228C212.406 22.5761 212.256 22.2344 211.956 21.9977C211.656 21.7577 211.273 21.6376 210.806 21.6376L209.311 21.6375L209.311 24.4775ZM213.477 28.0029L216.087 20.7731L217.267 20.7732L219.872 28.0035L218.792 28.0034L218.112 26.1083L215.247 26.108L214.562 28.003L213.477 28.0029ZM215.512 25.1381L217.832 25.1383L216.672 21.8132L215.512 25.1381ZM221.166 28.0036L221.165 20.7736L222.2 20.7737L225.881 26.1641L225.88 20.7741L226.955 20.7742L226.956 28.0042L225.996 28.0041L222.235 22.4987L222.236 28.0037L221.166 28.0036ZM230.458 28.0045L230.458 24.9345L227.977 20.7743L229.147 20.7744L230.998 23.9896L232.822 20.7747L233.992 20.7749L231.528 24.9396L231.528 28.0046L230.458 28.0045ZM237.24 28.0052L237.239 20.7752L238.274 20.7753L241.955 26.1656L241.954 20.7756L243.029 20.7757L243.03 28.0057L242.07 28.0056L238.31 22.5003L238.31 28.0053L237.24 28.0052ZM244.317 28.0059L246.927 20.7761L248.107 20.7762L250.712 28.0065L249.632 28.0064L248.952 26.1113L246.087 26.111L245.402 28.006L244.317 28.0059ZM246.352 25.1411L248.672 25.1413L247.512 21.8162L246.352 25.1411ZM252.006 28.0066L252.005 20.7766L253.515 20.7767L255.551 26.5269L257.615 20.7771L259.115 20.7773L259.116 28.0073L258.021 28.0072L258.02 22.2472L256.021 28.007L255.086 28.0069L253.095 22.2917L253.096 28.0067L252.006 28.0066ZM260.941 28.0075L260.941 20.7775L265.611 20.7779L265.606 21.7079L262.016 21.7076L262.016 23.9026L265.221 23.9029L265.221 24.8179L262.011 24.8176L262.011 27.0626L265.696 27.0679L265.696 28.0079L260.941 28.0075Z" fill="white"/>
<path d="M0 115H368V134H0V115Z" fill="#007867"/>
<path d="M109.531 128.11C108.875 128.11 108.327 127.963 107.887 127.67C107.45 127.373 107.131 126.949 106.93 126.399C106.728 125.846 106.655 125.182 106.71 124.408C106.75 123.781 106.864 123.197 107.051 122.654C107.241 122.111 107.503 121.636 107.837 121.229C108.171 120.822 108.576 120.505 109.053 120.278C109.529 120.051 110.076 119.937 110.692 119.937C111.245 119.937 111.72 120.051 112.116 120.278C112.516 120.505 112.82 120.821 113.029 121.224C113.242 121.624 113.344 122.082 113.337 122.599H111.951C111.94 122.306 111.878 122.043 111.764 121.812C111.654 121.581 111.493 121.398 111.28 121.262C111.071 121.127 110.805 121.059 110.483 121.059C110.105 121.059 109.777 121.149 109.498 121.328C109.223 121.508 108.99 121.756 108.8 122.071C108.613 122.383 108.466 122.744 108.36 123.154C108.253 123.561 108.182 124 108.145 124.469C108.068 125.334 108.162 125.97 108.426 126.377C108.69 126.784 109.1 126.988 109.658 126.988C109.98 126.988 110.266 126.915 110.516 126.768C110.769 126.618 110.983 126.42 111.159 126.174C111.335 125.925 111.469 125.653 111.561 125.36H112.952C112.86 125.719 112.723 126.064 112.54 126.394C112.36 126.724 112.133 127.019 111.858 127.279C111.583 127.536 111.253 127.74 110.868 127.89C110.483 128.037 110.037 128.11 109.531 128.11ZM116.202 128.11C115.682 128.11 115.243 127.995 114.888 127.763C114.532 127.529 114.277 127.193 114.123 126.757C113.973 126.321 113.942 125.796 114.03 125.184C114.114 124.59 114.292 124.069 114.563 123.622C114.835 123.175 115.181 122.826 115.603 122.577C116.028 122.328 116.51 122.203 117.049 122.203C117.574 122.203 118.012 122.322 118.364 122.56C118.716 122.799 118.965 123.14 119.112 123.583C119.262 124.027 119.293 124.561 119.205 125.184C119.121 125.76 118.947 126.267 118.683 126.707C118.419 127.144 118.078 127.487 117.66 127.736C117.242 127.985 116.756 128.11 116.202 128.11ZM116.367 127.092C116.657 127.092 116.908 127.008 117.121 126.839C117.333 126.671 117.506 126.44 117.638 126.146C117.773 125.853 117.867 125.519 117.918 125.145C117.966 124.797 117.968 124.476 117.924 124.183C117.88 123.89 117.777 123.655 117.616 123.479C117.454 123.299 117.216 123.209 116.901 123.209C116.6 123.209 116.342 123.292 116.125 123.457C115.913 123.618 115.738 123.846 115.603 124.139C115.471 124.429 115.379 124.764 115.328 125.145C115.284 125.49 115.282 125.811 115.322 126.108C115.366 126.401 115.471 126.64 115.636 126.823C115.801 127.003 116.045 127.092 116.367 127.092ZM120.022 128L120.858 122.313H122.139L122.04 123.072C122.165 122.925 122.308 122.79 122.469 122.665C122.63 122.54 122.817 122.439 123.03 122.362C123.246 122.285 123.499 122.247 123.789 122.247C124.13 122.247 124.434 122.326 124.702 122.483C124.97 122.641 125.17 122.868 125.302 123.165C125.437 123.462 125.472 123.818 125.406 124.232L124.856 128H123.536L124.07 124.386C124.121 124.042 124.06 123.778 123.888 123.594C123.719 123.407 123.492 123.314 123.206 123.314C123.004 123.314 122.808 123.351 122.618 123.424C122.427 123.494 122.266 123.598 122.134 123.737C122.002 123.877 121.921 124.049 121.892 124.254L121.336 128H120.022ZM128.269 128.044C127.833 128.044 127.501 127.985 127.273 127.868C127.05 127.747 126.907 127.576 126.844 127.356C126.782 127.136 126.773 126.874 126.817 126.57L127.301 123.259H126.41L126.558 122.313H127.477L127.944 120.624H129L128.758 122.307H129.985L129.842 123.259H128.615L128.153 126.493C128.117 126.746 128.139 126.907 128.219 126.977C128.304 127.047 128.443 127.081 128.637 127.081H129.308L129.182 127.928C129.109 127.958 128.999 127.983 128.852 128.006C128.705 128.031 128.511 128.044 128.269 128.044ZM131.966 128.11C131.614 128.11 131.309 128.044 131.053 127.912C130.796 127.776 130.607 127.584 130.486 127.334C130.365 127.081 130.33 126.775 130.382 126.416C130.473 125.789 130.761 125.316 131.245 124.997C131.729 124.678 132.448 124.511 133.401 124.496L134.204 124.474L134.259 124.089C134.303 123.778 134.243 123.539 134.078 123.374C133.916 123.209 133.676 123.129 133.357 123.132C133.101 123.136 132.849 123.204 132.604 123.336C132.362 123.468 132.184 123.677 132.07 123.963H130.954C131.031 123.6 131.188 123.286 131.427 123.022C131.665 122.758 131.968 122.557 132.334 122.417C132.701 122.274 133.108 122.203 133.555 122.203C134.076 122.203 134.49 122.278 134.798 122.428C135.11 122.579 135.324 122.79 135.442 123.061C135.559 123.332 135.59 123.649 135.535 124.012L134.952 128H133.847L133.88 127.004C133.619 127.43 133.33 127.721 133.011 127.879C132.695 128.033 132.347 128.11 131.966 128.11ZM132.521 127.202C132.679 127.202 132.837 127.173 132.994 127.114C133.156 127.052 133.304 126.97 133.44 126.867C133.579 126.761 133.695 126.643 133.786 126.515C133.882 126.387 133.94 126.253 133.962 126.113L134.094 125.217L133.44 125.228C133.117 125.232 132.827 125.268 132.571 125.338C132.318 125.408 132.112 125.519 131.955 125.673C131.797 125.824 131.698 126.025 131.658 126.278C131.617 126.568 131.68 126.795 131.845 126.96C132.01 127.122 132.235 127.202 132.521 127.202ZM138.675 128.11C138.172 128.11 137.743 127.996 137.388 127.769C137.032 127.538 136.773 127.204 136.612 126.768C136.454 126.328 136.421 125.798 136.513 125.178C136.597 124.588 136.777 124.071 137.052 123.627C137.327 123.18 137.677 122.832 138.103 122.582C138.528 122.329 139.006 122.203 139.538 122.203C139.971 122.203 140.336 122.291 140.633 122.467C140.933 122.643 141.157 122.887 141.304 123.198C141.454 123.51 141.52 123.864 141.502 124.26H140.38C140.38 124.088 140.345 123.924 140.275 123.77C140.205 123.613 140.097 123.486 139.951 123.391C139.808 123.292 139.622 123.242 139.395 123.242C138.992 123.242 138.64 123.4 138.339 123.715C138.042 124.031 137.846 124.515 137.751 125.167C137.663 125.769 137.714 126.247 137.905 126.603C138.095 126.959 138.411 127.136 138.851 127.136C139.078 127.136 139.278 127.085 139.45 126.982C139.626 126.876 139.771 126.746 139.885 126.592C139.998 126.434 140.077 126.277 140.121 126.119H141.216C141.128 126.504 140.963 126.847 140.721 127.147C140.482 127.448 140.187 127.685 139.835 127.857C139.487 128.026 139.1 128.11 138.675 128.11ZM144.2 128.044C143.763 128.044 143.431 127.985 143.204 127.868C142.98 127.747 142.837 127.576 142.775 127.356C142.713 127.136 142.704 126.874 142.748 126.57L143.232 123.259H142.341L142.489 122.313H143.408L143.875 120.624H144.931L144.689 122.307H145.916L145.773 123.259H144.546L144.084 126.493C144.047 126.746 144.069 126.907 144.15 126.977C144.234 127.047 144.374 127.081 144.568 127.081H145.239L145.113 127.928C145.039 127.958 144.929 127.983 144.783 128.006C144.636 128.031 144.442 128.044 144.2 128.044ZM150.931 128.11C150.667 128.11 150.416 128.07 150.177 127.989C149.939 127.905 149.732 127.784 149.556 127.626C149.38 127.465 149.25 127.267 149.165 127.032C149.081 126.797 149.061 126.524 149.105 126.212L149.649 122.313H150.975L150.447 126.058C150.403 126.366 150.461 126.619 150.623 126.817C150.784 127.015 151.05 127.114 151.42 127.114C151.765 127.114 152.053 127.021 152.284 126.834C152.515 126.643 152.656 126.37 152.707 126.014L153.23 122.313H154.539L153.741 128H152.729L152.735 126.889C152.628 127.201 152.476 127.446 152.278 127.626C152.084 127.802 151.869 127.927 151.635 128C151.4 128.073 151.165 128.11 150.931 128.11ZM157.346 128.11C156.965 128.11 156.611 128.048 156.284 127.923C155.962 127.795 155.701 127.595 155.503 127.323C155.309 127.052 155.21 126.702 155.206 126.273H156.372C156.387 126.482 156.448 126.652 156.554 126.784C156.664 126.916 156.8 127.014 156.961 127.076C157.122 127.135 157.293 127.164 157.472 127.164C157.799 127.164 158.07 127.105 158.286 126.988C158.503 126.871 158.627 126.689 158.66 126.443C158.686 126.264 158.649 126.121 158.55 126.014C158.455 125.908 158.286 125.827 158.044 125.772L157.043 125.525C156.592 125.419 156.242 125.243 155.993 124.997C155.747 124.751 155.654 124.405 155.712 123.957C155.756 123.62 155.881 123.319 156.086 123.055C156.292 122.791 156.569 122.584 156.917 122.434C157.269 122.28 157.689 122.203 158.176 122.203C158.822 122.203 159.319 122.351 159.667 122.648C160.015 122.942 160.155 123.362 160.085 123.908H158.963C158.959 123.662 158.875 123.472 158.71 123.336C158.549 123.197 158.323 123.127 158.033 123.127C157.733 123.127 157.478 123.187 157.269 123.308C157.06 123.429 156.939 123.615 156.906 123.864C156.88 124.036 156.933 124.172 157.065 124.271C157.201 124.37 157.414 124.454 157.703 124.524L158.644 124.771C158.915 124.845 159.133 124.944 159.298 125.068C159.467 125.193 159.592 125.331 159.672 125.481C159.753 125.628 159.803 125.78 159.821 125.937C159.839 126.091 159.839 126.234 159.821 126.366C159.77 126.733 159.634 127.047 159.414 127.307C159.198 127.564 158.912 127.762 158.556 127.901C158.2 128.04 157.797 128.11 157.346 128.11ZM163.945 128L164.632 123.259H163.565L163.708 122.313H164.77L164.896 121.466C164.966 121.011 165.14 120.661 165.419 120.415C165.697 120.17 166.068 120.047 166.53 120.047H167.69L167.558 120.96H166.81C166.598 120.96 166.444 121.017 166.348 121.13C166.257 121.24 166.192 121.415 166.156 121.653L166.062 122.313H167.311L167.168 123.259H165.947L165.254 128H163.945ZM169.784 128.11C169.264 128.11 168.825 127.995 168.47 127.763C168.114 127.529 167.859 127.193 167.705 126.757C167.555 126.321 167.524 125.796 167.612 125.184C167.696 124.59 167.874 124.069 168.145 123.622C168.417 123.175 168.763 122.826 169.185 122.577C169.61 122.328 170.092 122.203 170.631 122.203C171.156 122.203 171.594 122.322 171.946 122.56C172.298 122.799 172.547 123.14 172.694 123.583C172.844 124.027 172.875 124.561 172.787 125.184C172.703 125.76 172.529 126.267 172.265 126.707C172.001 127.144 171.66 127.487 171.242 127.736C170.824 127.985 170.338 128.11 169.784 128.11ZM169.949 127.092C170.239 127.092 170.49 127.008 170.703 126.839C170.915 126.671 171.088 126.44 171.22 126.146C171.355 125.853 171.449 125.519 171.5 125.145C171.548 124.797 171.55 124.476 171.506 124.183C171.462 123.89 171.359 123.655 171.198 123.479C171.036 123.299 170.798 123.209 170.483 123.209C170.182 123.209 169.924 123.292 169.707 123.457C169.495 123.618 169.32 123.846 169.185 124.139C169.053 124.429 168.961 124.764 168.91 125.145C168.866 125.49 168.864 125.811 168.904 126.108C168.948 126.401 169.053 126.64 169.218 126.823C169.383 127.003 169.627 127.092 169.949 127.092ZM173.604 128L174.407 122.313H175.672L175.501 123.545C175.629 123.263 175.789 123.022 175.98 122.824C176.17 122.623 176.385 122.469 176.623 122.362C176.865 122.256 177.118 122.203 177.382 122.203C177.448 122.203 177.509 122.207 177.564 122.214C177.619 122.221 177.661 122.234 177.69 122.252L177.509 123.534C177.472 123.516 177.424 123.503 177.366 123.495C177.307 123.488 177.256 123.484 177.212 123.484C176.856 123.455 176.55 123.484 176.293 123.572C176.036 123.657 175.833 123.794 175.683 123.985C175.532 124.176 175.435 124.412 175.391 124.694L174.929 128H173.604ZM180.677 128L181.843 120.047H184.56C185.11 120.047 185.587 120.146 185.99 120.344C186.397 120.538 186.698 120.826 186.892 121.207C187.09 121.589 187.149 122.058 187.068 122.615C186.991 123.14 186.811 123.589 186.529 123.963C186.247 124.337 185.887 124.623 185.451 124.821C185.018 125.019 184.531 125.118 183.988 125.118H182.437L182.013 128H180.677ZM182.58 124.045H184.114C184.408 124.045 184.675 123.983 184.917 123.858C185.163 123.73 185.367 123.552 185.528 123.325C185.689 123.098 185.792 122.835 185.836 122.538C185.898 122.084 185.801 121.732 185.544 121.482C185.291 121.229 184.945 121.103 184.505 121.103H183.009L182.58 124.045ZM188.975 128.083C188.619 128.083 188.341 128.037 188.139 127.945C187.937 127.853 187.794 127.73 187.71 127.576C187.629 127.422 187.585 127.25 187.578 127.059C187.571 126.865 187.582 126.667 187.611 126.465L188.585 119.827H189.883L188.931 126.311C188.894 126.557 188.915 126.748 188.992 126.883C189.069 127.019 189.215 127.098 189.432 127.12L189.696 127.131L189.575 127.972C189.472 128.002 189.367 128.028 189.261 128.05C189.155 128.072 189.059 128.083 188.975 128.083ZM192.326 128.11C191.974 128.11 191.67 128.044 191.413 127.912C191.156 127.776 190.968 127.584 190.847 127.334C190.726 127.081 190.691 126.775 190.742 126.416C190.834 125.789 191.122 125.316 191.606 124.997C192.09 124.678 192.808 124.511 193.762 124.496L194.565 124.474L194.62 124.089C194.664 123.778 194.603 123.539 194.438 123.374C194.277 123.209 194.037 123.129 193.718 123.132C193.461 123.136 193.21 123.204 192.964 123.336C192.722 123.468 192.544 123.677 192.431 123.963H191.314C191.391 123.6 191.549 123.286 191.787 123.022C192.025 122.758 192.328 122.557 192.695 122.417C193.061 122.274 193.468 122.203 193.916 122.203C194.436 122.203 194.851 122.278 195.159 122.428C195.47 122.579 195.685 122.79 195.802 123.061C195.919 123.332 195.951 123.649 195.896 124.012L195.313 128H194.207L194.24 127.004C193.98 127.43 193.69 127.721 193.371 127.879C193.056 128.033 192.707 128.11 192.326 128.11ZM192.882 127.202C193.039 127.202 193.197 127.173 193.355 127.114C193.516 127.052 193.664 126.97 193.8 126.867C193.939 126.761 194.055 126.643 194.147 126.515C194.242 126.387 194.301 126.253 194.323 126.113L194.455 125.217L193.8 125.228C193.477 125.232 193.188 125.268 192.931 125.338C192.678 125.408 192.473 125.519 192.315 125.673C192.157 125.824 192.058 126.025 192.018 126.278C191.978 126.568 192.04 126.795 192.205 126.96C192.37 127.122 192.596 127.202 192.882 127.202ZM199.035 128.11C198.533 128.11 198.104 127.996 197.748 127.769C197.392 127.538 197.134 127.204 196.972 126.768C196.815 126.328 196.782 125.798 196.873 125.178C196.958 124.588 197.137 124.071 197.412 123.627C197.687 123.18 198.038 122.832 198.463 122.582C198.888 122.329 199.367 122.203 199.898 122.203C200.331 122.203 200.696 122.291 200.993 122.467C201.294 122.643 201.517 122.887 201.664 123.198C201.814 123.51 201.88 123.864 201.862 124.26H200.74C200.74 124.088 200.705 123.924 200.635 123.77C200.566 123.613 200.458 123.486 200.311 123.391C200.168 123.292 199.983 123.242 199.755 123.242C199.352 123.242 199 123.4 198.699 123.715C198.402 124.031 198.206 124.515 198.111 125.167C198.023 125.769 198.074 126.247 198.265 126.603C198.456 126.959 198.771 127.136 199.211 127.136C199.438 127.136 199.638 127.085 199.81 126.982C199.986 126.876 200.131 126.746 200.245 126.592C200.359 126.434 200.437 126.277 200.481 126.119H201.576C201.488 126.504 201.323 126.847 201.081 127.147C200.843 127.448 200.547 127.685 200.195 127.857C199.847 128.026 199.46 128.11 199.035 128.11ZM202.592 128L203.395 122.313H204.665L203.868 128H202.592ZM203.521 121.312L203.697 120.047H205.001L204.825 121.312H203.521ZM205.454 128L206.29 122.313H207.572L207.473 123.072C207.597 122.925 207.74 122.79 207.902 122.665C208.063 122.54 208.25 122.439 208.463 122.362C208.679 122.285 208.932 122.247 209.222 122.247C209.563 122.247 209.867 122.326 210.135 122.483C210.402 122.641 210.602 122.868 210.734 123.165C210.87 123.462 210.905 123.818 210.839 124.232L210.289 128H208.969L209.502 124.386C209.554 124.042 209.493 123.778 209.321 123.594C209.152 123.407 208.925 123.314 208.639 123.314C208.437 123.314 208.241 123.351 208.05 123.424C207.86 123.494 207.698 123.598 207.566 123.737C207.434 123.877 207.354 124.049 207.324 124.254L206.769 128H205.454ZM213.988 129.881C213.045 129.881 212.338 129.745 211.865 129.474C211.395 129.203 211.192 128.836 211.254 128.374C211.28 128.183 211.348 128.024 211.458 127.895C211.571 127.763 211.698 127.655 211.837 127.571C211.976 127.487 212.105 127.421 212.222 127.373C212.339 127.325 212.418 127.29 212.459 127.268C212.411 127.235 212.341 127.188 212.25 127.125C212.158 127.063 212.077 126.977 212.008 126.867C211.938 126.757 211.916 126.616 211.942 126.443C211.964 126.267 212.07 126.104 212.261 125.954C212.451 125.8 212.735 125.686 213.113 125.613C212.801 125.441 212.57 125.206 212.42 124.909C212.27 124.608 212.218 124.289 212.266 123.952C212.314 123.607 212.451 123.305 212.679 123.044C212.91 122.784 213.218 122.582 213.603 122.439C213.991 122.296 214.446 122.225 214.967 122.225C215.348 122.225 215.654 122.269 215.885 122.357C216.116 122.445 216.32 122.559 216.496 122.698C216.58 122.665 216.692 122.621 216.831 122.566C216.97 122.507 217.121 122.447 217.282 122.384C217.443 122.318 217.599 122.256 217.75 122.197C217.904 122.135 218.032 122.084 218.135 122.043L218.003 123.16L217.013 123.363C217.082 123.605 217.102 123.842 217.073 124.073C217.029 124.396 216.901 124.693 216.688 124.964C216.475 125.232 216.184 125.448 215.814 125.613C215.443 125.774 214.996 125.855 214.472 125.855C214.402 125.855 214.319 125.853 214.224 125.849C214.132 125.846 214.065 125.842 214.021 125.838C213.731 125.842 213.526 125.868 213.405 125.915C213.284 125.959 213.219 126.022 213.212 126.102C213.216 126.205 213.291 126.278 213.438 126.322C213.584 126.366 213.808 126.401 214.109 126.427C214.248 126.438 214.417 126.449 214.615 126.46C214.816 126.467 215.033 126.48 215.264 126.498C215.905 126.539 216.373 126.707 216.666 127.004C216.959 127.298 217.075 127.677 217.013 128.143C216.939 128.653 216.651 129.069 216.149 129.392C215.647 129.718 214.926 129.881 213.988 129.881ZM214.213 129.095C214.686 129.095 215.047 129.021 215.297 128.875C215.546 128.732 215.689 128.523 215.726 128.248C215.748 128.068 215.694 127.921 215.566 127.807C215.438 127.694 215.227 127.628 214.934 127.609L213.575 127.516C213.425 127.509 213.274 127.54 213.124 127.609C212.974 127.679 212.847 127.776 212.745 127.901C212.642 128.026 212.58 128.165 212.558 128.319C212.525 128.572 212.64 128.765 212.904 128.897C213.172 129.029 213.608 129.095 214.213 129.095ZM214.516 125.068C214.864 125.068 215.157 124.973 215.396 124.782C215.638 124.592 215.781 124.326 215.825 123.985C215.869 123.666 215.806 123.418 215.638 123.242C215.469 123.063 215.225 122.973 214.906 122.973C214.554 122.973 214.255 123.076 214.01 123.281C213.764 123.483 213.617 123.759 213.57 124.111C213.529 124.412 213.592 124.647 213.757 124.815C213.922 124.984 214.175 125.068 214.516 125.068ZM222.924 128L223.408 124.634L221.461 120.047H222.885L224.249 123.468L226.581 120.047H228.028L224.728 124.639L224.233 128H222.924ZM229.156 128.11C228.636 128.11 228.198 127.995 227.842 127.763C227.486 127.529 227.231 127.193 227.077 126.757C226.927 126.321 226.896 125.796 226.984 125.184C227.068 124.59 227.246 124.069 227.517 123.622C227.789 123.175 228.135 122.826 228.557 122.577C228.982 122.328 229.464 122.203 230.003 122.203C230.528 122.203 230.966 122.322 231.318 122.56C231.67 122.799 231.919 123.14 232.066 123.583C232.216 124.027 232.247 124.561 232.159 125.184C232.075 125.76 231.901 126.267 231.637 126.707C231.373 127.144 231.032 127.487 230.614 127.736C230.196 127.985 229.71 128.11 229.156 128.11ZM229.321 127.092C229.611 127.092 229.862 127.008 230.075 126.839C230.288 126.671 230.46 126.44 230.592 126.146C230.728 125.853 230.821 125.519 230.872 125.145C230.92 124.797 230.922 124.476 230.878 124.183C230.834 123.89 230.731 123.655 230.57 123.479C230.409 123.299 230.17 123.209 229.855 123.209C229.554 123.209 229.296 123.292 229.079 123.457C228.867 123.618 228.693 123.846 228.557 124.139C228.425 124.429 228.333 124.764 228.282 125.145C228.238 125.49 228.236 125.811 228.276 126.108C228.32 126.401 228.425 126.64 228.59 126.823C228.755 127.003 228.999 127.092 229.321 127.092ZM234.978 128.11C234.714 128.11 234.462 128.07 234.224 127.989C233.986 127.905 233.779 127.784 233.603 127.626C233.427 127.465 233.296 127.267 233.212 127.032C233.128 126.797 233.108 126.524 233.152 126.212L233.696 122.313H235.022L234.494 126.058C234.45 126.366 234.508 126.619 234.67 126.817C234.831 127.015 235.097 127.114 235.467 127.114C235.812 127.114 236.1 127.021 236.331 126.834C236.562 126.643 236.703 126.37 236.754 126.014L237.277 122.313H238.586L237.788 128H236.776L236.782 126.889C236.675 127.201 236.523 127.446 236.325 127.626C236.131 127.802 235.916 127.927 235.682 128C235.447 128.073 235.212 128.11 234.978 128.11ZM239.357 128L240.16 122.313H241.425L241.254 123.545C241.382 123.263 241.542 123.022 241.733 122.824C241.923 122.623 242.138 122.469 242.376 122.362C242.618 122.256 242.871 122.203 243.135 122.203C243.201 122.203 243.262 122.207 243.317 122.214C243.372 122.221 243.414 122.234 243.443 122.252L243.262 123.534C243.225 123.516 243.177 123.503 243.119 123.495C243.06 123.488 243.009 123.484 242.965 123.484C242.609 123.455 242.303 123.484 242.046 123.572C241.789 123.657 241.586 123.794 241.436 123.985C241.285 124.176 241.188 124.412 241.144 124.694L240.682 128H239.357ZM245.847 128L249.757 120.047H251.171L252.744 128H251.429L251.05 126.003H248.151L247.172 128H245.847ZM248.63 124.815H250.896L250.28 121.35L248.63 124.815ZM254.1 128L255.238 120.047C255.268 120.047 255.392 120.049 255.612 120.052C255.836 120.052 256.085 120.052 256.36 120.052C256.87 120.052 257.35 120.078 257.801 120.129C258.252 120.181 258.659 120.271 259.022 120.399C259.389 120.524 259.704 120.701 259.968 120.932C260.232 121.163 260.434 121.46 260.573 121.823C260.716 122.183 260.788 122.621 260.788 123.138C260.788 123.486 260.758 123.847 260.7 124.221C260.645 124.592 260.549 124.958 260.414 125.321C260.282 125.684 260.1 126.027 259.869 126.35C259.642 126.669 259.356 126.953 259.011 127.202C258.67 127.448 258.263 127.642 257.79 127.785C257.317 127.928 256.767 128 256.14 128H254.1ZM255.607 126.894H256.261C256.793 126.894 257.257 126.799 257.653 126.608C258.049 126.418 258.377 126.154 258.637 125.816C258.901 125.479 259.097 125.085 259.226 124.634C259.358 124.183 259.424 123.697 259.424 123.176C259.424 122.685 259.336 122.291 259.16 121.994C258.984 121.697 258.729 121.482 258.395 121.35C258.062 121.218 257.66 121.152 257.191 121.152H256.437L255.607 126.894ZM263.597 128.11C263.216 128.11 262.862 128.048 262.535 127.923C262.213 127.795 261.952 127.595 261.754 127.323C261.56 127.052 261.461 126.702 261.457 126.273H262.623C262.638 126.482 262.699 126.652 262.805 126.784C262.915 126.916 263.051 127.014 263.212 127.076C263.373 127.135 263.544 127.164 263.723 127.164C264.05 127.164 264.321 127.105 264.537 126.988C264.754 126.871 264.878 126.689 264.911 126.443C264.937 126.264 264.9 126.121 264.801 126.014C264.706 125.908 264.537 125.827 264.295 125.772L263.294 125.525C262.843 125.419 262.493 125.243 262.244 124.997C261.998 124.751 261.905 124.405 261.963 123.957C262.007 123.62 262.132 123.319 262.337 123.055C262.543 122.791 262.82 122.584 263.168 122.434C263.52 122.28 263.94 122.203 264.427 122.203C265.073 122.203 265.57 122.351 265.918 122.648C266.266 122.942 266.406 123.362 266.336 123.908H265.214C265.21 123.662 265.126 123.472 264.961 123.336C264.8 123.197 264.574 123.127 264.284 123.127C263.984 123.127 263.729 123.187 263.52 123.308C263.311 123.429 263.19 123.615 263.157 123.864C263.131 124.036 263.184 124.172 263.316 124.271C263.452 124.37 263.665 124.454 263.954 124.524L264.895 124.771C265.166 124.845 265.384 124.944 265.549 125.068C265.718 125.193 265.843 125.331 265.923 125.481C266.004 125.628 266.054 125.78 266.072 125.937C266.09 126.091 266.09 126.234 266.072 126.366C266.021 126.733 265.885 127.047 265.665 127.307C265.449 127.564 265.163 127.762 264.807 127.901C264.451 128.04 264.048 128.11 263.597 128.11Z" fill="white"/>
<path d="M73.4978 77.5708C73.0978 77.6348 72.6578 77.7068 72.1778 77.7868C71.6978 77.8668 71.2658 77.9388 70.8818 78.0028C70.9458 77.4748 71.0098 76.9548 71.0738 76.4428C71.1218 75.9948 71.1618 75.5468 71.1938 75.0988C71.2418 74.6508 71.2818 74.2668 71.3138 73.9468H69.2258L68.2658 77.4028C67.9138 77.4508 67.4978 77.5068 67.0178 77.5708C66.5378 77.6188 66.0898 77.6668 65.6738 77.7148C65.1618 77.7788 64.6578 77.8428 64.1618 77.9068C64.8018 75.7788 65.4338 73.6828 66.0578 71.6188C66.3138 70.7548 66.5778 69.8508 66.8498 68.9068C67.1378 67.9628 67.4178 67.0268 67.6898 66.0988C67.9778 65.1548 68.2498 64.2508 68.5058 63.3868C68.7618 62.5228 68.9858 61.7308 69.1778 61.0108C70.2658 60.9308 71.3698 60.8348 72.4898 60.7228C73.6258 60.6108 74.7298 60.4588 75.8018 60.2668C75.7538 60.7788 75.6978 61.4188 75.6338 62.1868C75.5858 62.9388 75.5378 63.7628 75.4898 64.6588C75.4418 65.5548 75.3938 66.4908 75.3458 67.4668C75.2978 68.4428 75.2498 69.4028 75.2018 70.3468C75.1218 72.5548 75.0338 74.8988 74.9378 77.3788C74.4578 77.4588 73.9778 77.5228 73.4978 77.5708ZM69.8018 71.5468C69.8658 71.5468 69.9778 71.5468 70.1378 71.5468C70.3138 71.5308 70.4898 71.5228 70.6658 71.5228C70.8578 71.5068 71.0338 71.4988 71.1938 71.4988C71.3538 71.4828 71.4658 71.4668 71.5298 71.4508C71.5298 71.3548 71.5378 71.1948 71.5538 70.9708C71.5858 70.7308 71.6098 70.4668 71.6258 70.1788C71.6578 69.8748 71.6898 69.5468 71.7218 69.1948C71.7538 68.8428 71.7858 68.4988 71.8178 68.1628C71.8818 67.3468 71.9618 66.4668 72.0578 65.5228L72.2018 63.4348L71.8418 63.4588L71.2898 65.5228L69.8018 71.5468ZM87.7446 65.7868C87.7446 66.6188 87.6246 67.5068 87.3846 68.4508C87.1446 69.3788 86.8086 70.3068 86.3766 71.2348C85.9446 72.1468 85.4086 73.0268 84.7686 73.8748C84.1446 74.7068 83.4326 75.4428 82.6326 76.0828C81.8326 76.7068 80.9526 77.2108 79.9926 77.5948C79.0486 77.9788 78.0406 78.1708 76.9686 78.1708C76.7446 78.1708 76.5206 78.1548 76.2966 78.1228C76.0726 78.1068 75.8486 78.0828 75.6246 78.0508C76.0566 75.8428 76.4806 73.6908 76.8966 71.5948C77.0566 70.7148 77.2246 69.8028 77.4006 68.8588C77.5766 67.8988 77.7446 66.9548 77.9046 66.0268C78.0646 65.0988 78.2166 64.2108 78.3606 63.3628C78.5206 62.5148 78.6486 61.7468 78.7446 61.0588C79.4326 60.9308 80.1286 60.8108 80.8326 60.6988C81.5366 60.5868 82.2566 60.5308 82.9926 60.5308C83.8566 60.5308 84.5846 60.6668 85.1766 60.9388C85.7846 61.2108 86.2726 61.5868 86.6406 62.0668C87.0246 62.5468 87.3046 63.1068 87.4806 63.7468C87.6566 64.3868 87.7446 65.0668 87.7446 65.7868ZM82.0806 63.9148C81.9046 64.8588 81.7206 65.7628 81.5286 66.6268C81.3366 67.4908 81.1446 68.3628 80.9526 69.2428C80.7606 70.1228 80.5686 71.0428 80.3766 72.0028C80.1846 72.9628 80.0006 74.0108 79.8246 75.1468C80.2086 74.8908 80.5766 74.5468 80.9286 74.1148C81.2966 73.6668 81.6406 73.1548 81.9606 72.5788C82.2806 72.0028 82.5686 71.3948 82.8246 70.7548C83.0966 70.1148 83.3286 69.4908 83.5206 68.8828C83.7126 68.2748 83.8566 67.7068 83.9526 67.1788C84.0646 66.6508 84.1206 66.1948 84.1206 65.8108C84.1206 65.2188 83.9526 64.7548 83.6166 64.4188C83.2966 64.0828 82.7846 63.9148 82.0806 63.9148ZM87.8777 78.2668C88.0857 76.0268 88.2777 73.8268 88.4537 71.6668C88.5337 70.7708 88.6057 69.8268 88.6697 68.8348C88.7497 67.8428 88.8137 66.8668 88.8617 65.9068C88.9257 64.9308 88.9737 63.9948 89.0057 63.0988C89.0377 62.1868 89.0617 61.3548 89.0777 60.6028C89.4617 60.6028 89.8697 60.5948 90.3017 60.5788C90.7497 60.5628 91.1497 60.5468 91.5017 60.5308C91.8697 60.5148 92.1817 60.4988 92.4377 60.4828C92.6937 60.4508 92.8217 60.4348 92.8217 60.4348C92.6457 62.2908 92.4937 63.8188 92.3657 65.0188C92.2377 66.2028 92.1337 67.1708 92.0537 67.9228C91.9897 68.6588 91.9257 69.3708 91.8617 70.0588C91.8137 70.7468 91.7577 71.3868 91.6937 71.9788C91.6297 72.5708 91.5737 73.0748 91.5257 73.4908H91.9577L94.6457 60.7228C95.0777 60.7068 95.5177 60.6828 95.9657 60.6508C96.3657 60.6188 96.7817 60.5948 97.2137 60.5788C97.6617 60.5628 98.0697 60.5308 98.4377 60.4828C98.2137 61.1868 97.9817 61.9628 97.7417 62.8108C97.5177 63.6588 97.2777 64.5388 97.0217 65.4508C96.7817 66.3628 96.5417 67.2908 96.3017 68.2348C96.0777 69.1788 95.8537 70.0908 95.6297 70.9708C95.1177 73.0348 94.6057 75.1548 94.0937 77.3308L87.8777 78.2668ZM96.2275 78.0748L99.3715 61.0108L106.955 60.3628C106.843 60.7148 106.747 61.0748 106.667 61.4428C106.587 61.7468 106.507 62.0668 106.427 62.4028C106.363 62.7228 106.307 63.0108 106.259 63.2668C106.099 63.2828 105.867 63.2988 105.563 63.3148C105.275 63.3148 104.963 63.3228 104.627 63.3388C104.291 63.3388 103.947 63.3388 103.595 63.3388C103.259 63.3388 102.963 63.3388 102.707 63.3388L101.867 67.6348C102.363 67.6028 102.827 67.5788 103.259 67.5628C103.611 67.5468 103.971 67.5388 104.339 67.5388C104.707 67.5388 104.979 67.5308 105.155 67.5148C105.091 67.9628 105.027 68.4028 104.963 68.8348C104.915 69.2668 104.851 69.7068 104.771 70.1548C104.611 70.1708 104.347 70.1868 103.979 70.2028C103.627 70.2028 103.267 70.2108 102.899 70.2268C102.483 70.2428 102.027 70.2588 101.531 70.2748L100.715 74.6908L104.219 74.1388L103.979 76.8748L96.2275 78.0748ZM104.791 78.0748C105.223 75.9468 105.639 73.8668 106.039 71.8348C106.183 70.9708 106.343 70.0748 106.519 69.1468C106.695 68.2028 106.855 67.2748 106.999 66.3628C107.159 65.4348 107.303 64.5468 107.431 63.6988C107.575 62.8348 107.687 62.0508 107.767 61.3468C108.679 61.0588 109.663 60.8508 110.719 60.7228C111.775 60.5788 112.823 60.5068 113.863 60.5068C114.487 60.5068 114.999 60.5788 115.399 60.7228C115.815 60.8668 116.135 61.0748 116.359 61.3468C116.599 61.6028 116.767 61.9068 116.863 62.2588C116.959 62.6108 117.007 63.0028 117.007 63.4348C117.007 64.0748 116.895 64.7068 116.671 65.3308C116.447 65.9388 116.143 66.5228 115.759 67.0828C115.391 67.6268 114.959 68.1308 114.463 68.5948C113.983 69.0428 113.463 69.4108 112.903 69.6988C113.191 70.3388 113.495 71.0428 113.815 71.8108C114.151 72.5628 114.463 73.2828 114.751 73.9708C115.071 74.7708 115.399 75.5708 115.735 76.3708L112.015 77.6668C111.695 76.5628 111.407 75.5228 111.151 74.5468C111.039 74.1468 110.927 73.7388 110.815 73.3228C110.703 72.8908 110.599 72.4908 110.503 72.1228C110.407 71.7388 110.327 71.4028 110.263 71.1148C110.199 70.8268 110.159 70.6028 110.143 70.4428L109.831 70.5388C109.735 71.0508 109.615 71.6748 109.471 72.4108C109.343 73.1468 109.223 73.8588 109.111 74.5468C108.967 75.3628 108.823 76.2028 108.679 77.0668L104.791 78.0748ZM110.431 67.6588C110.735 67.6268 111.103 67.4988 111.535 67.2748C111.983 67.0508 112.407 66.7868 112.807 66.4828C113.207 66.1628 113.551 65.8348 113.839 65.4988C114.127 65.1628 114.271 64.8668 114.271 64.6108C114.271 64.4348 114.215 64.2988 114.103 64.2028C113.991 64.0908 113.831 64.0108 113.623 63.9628C113.431 63.8988 113.215 63.8588 112.975 63.8428C112.735 63.8268 112.487 63.8188 112.231 63.8188C112.055 63.8188 111.871 63.8268 111.679 63.8428C111.503 63.8428 111.343 63.8428 111.199 63.8428L110.431 67.6588ZM117.765 78.0748C118.133 76.3148 118.485 74.5788 118.821 72.8668C118.965 72.1468 119.109 71.3948 119.253 70.6108C119.397 69.8268 119.533 69.0588 119.661 68.3068C119.805 67.5388 119.925 66.8028 120.021 66.0988C120.133 65.3788 120.229 64.7228 120.309 64.1308C119.941 64.0828 119.565 64.0668 119.181 64.0828C118.813 64.0988 118.445 64.0508 118.077 63.9388C118.093 63.6828 118.101 63.3868 118.101 63.0508C118.101 62.7148 118.109 62.3788 118.125 62.0428C118.141 61.6748 118.157 61.2828 118.173 60.8668C118.589 60.8988 119.005 60.9228 119.421 60.9388C119.837 60.9548 120.253 60.9628 120.669 60.9628C121.485 60.9628 122.269 60.9468 123.021 60.9148C123.789 60.8668 124.493 60.8188 125.133 60.7708C125.789 60.7068 126.429 60.6348 127.053 60.5548L126.789 61.8508C126.709 62.2188 126.629 62.5948 126.549 62.9788C126.485 63.3628 126.421 63.6908 126.357 63.9628C126.005 64.0588 125.645 64.1308 125.277 64.1788C124.925 64.2108 124.573 64.2588 124.221 64.3228C124.109 64.8668 123.989 65.4748 123.861 66.1468C123.733 66.8028 123.605 67.4908 123.477 68.2108C123.365 68.9148 123.253 69.6348 123.141 70.3708C123.029 71.1068 122.917 71.8108 122.805 72.4828C122.549 74.0668 122.309 75.7068 122.085 77.4028L117.765 78.0748ZM128.455 77.5708C128.311 77.5708 128.031 77.5948 127.615 77.6428C127.199 77.6748 126.767 77.7228 126.319 77.7868C125.871 77.8348 125.463 77.8828 125.095 77.9308C124.743 77.9788 124.551 78.0108 124.519 78.0268C124.711 77.3388 124.903 76.5788 125.095 75.7468C125.287 74.8988 125.479 74.0188 125.671 73.1068C125.879 72.1788 126.071 71.2428 126.247 70.2988C126.439 69.3548 126.623 68.4428 126.799 67.5628C127.199 65.5148 127.591 63.4108 127.975 61.2508L131.719 60.6508C131.303 62.7948 130.887 64.8988 130.471 66.9628C130.295 67.8428 130.111 68.7548 129.919 69.6988C129.743 70.6428 129.567 71.5788 129.391 72.5068C129.231 73.4348 129.063 74.3388 128.887 75.2188C128.727 76.0828 128.583 76.8668 128.455 77.5708ZM140.58 72.1228C140.58 73.0188 140.404 73.8348 140.052 74.5708C139.716 75.2908 139.252 75.9148 138.66 76.4428C138.084 76.9708 137.396 77.3788 136.596 77.6668C135.812 77.9548 134.964 78.0988 134.052 78.0988C133.412 78.0988 132.772 77.9308 132.132 77.5948C131.492 77.2428 130.876 76.6908 130.284 75.9388L132.06 72.4588C132.172 72.6668 132.34 72.8828 132.564 73.1068C132.788 73.3148 133.036 73.4988 133.308 73.6588C133.596 73.8188 133.876 73.9548 134.148 74.0668C134.436 74.1628 134.692 74.2108 134.916 74.2108C135.108 74.2108 135.308 74.1788 135.516 74.1148C135.724 74.0508 135.916 73.9548 136.092 73.8268C136.268 73.6988 136.404 73.5548 136.5 73.3948C136.612 73.2188 136.668 73.0188 136.668 72.7948C136.668 72.4108 136.54 72.0588 136.284 71.7388C136.044 71.4028 135.74 71.0908 135.372 70.8028C135.004 70.4988 134.604 70.1948 134.172 69.8908C133.74 69.5868 133.34 69.2668 132.972 68.9308C132.62 68.5948 132.316 68.2188 132.06 67.8028C131.804 67.3868 131.676 66.9228 131.676 66.4108C131.676 65.5788 131.924 64.8028 132.42 64.0828C132.916 63.3628 133.532 62.7468 134.268 62.2348C135.02 61.7068 135.836 61.2908 136.716 60.9868C137.596 60.6828 138.428 60.5308 139.212 60.5308C139.644 60.5308 140.052 60.5868 140.436 60.6988C140.82 60.7948 141.148 60.9628 141.42 61.2028C141.708 61.4268 141.932 61.7148 142.092 62.0668C142.268 62.4188 142.356 62.8588 142.356 63.3868C142.356 63.6108 142.332 63.8348 142.284 64.0588C142.252 64.2828 142.22 64.5228 142.188 64.7788L138.708 65.7868C138.74 65.6588 138.764 65.5308 138.78 65.4028C138.812 65.2748 138.828 65.1468 138.828 65.0188C138.828 64.5388 138.74 64.1948 138.564 63.9868C138.404 63.7628 138.188 63.6508 137.916 63.6508C137.788 63.6508 137.628 63.6988 137.436 63.7948C137.26 63.8908 137.076 64.0188 136.884 64.1788C136.708 64.3228 136.556 64.4988 136.428 64.7068C136.3 64.9148 136.236 65.1388 136.236 65.3788C136.236 65.7628 136.34 66.0828 136.548 66.3388C136.772 66.5948 137.044 66.8348 137.364 67.0588C137.684 67.2828 138.028 67.5148 138.396 67.7548C138.78 67.9788 139.132 68.2748 139.452 68.6428C139.772 69.0108 140.036 69.4748 140.244 70.0348C140.468 70.5788 140.58 71.2748 140.58 72.1228ZM140.932 78.0748L144.076 61.0108L151.66 60.3628C151.548 60.7148 151.452 61.0748 151.372 61.4428C151.292 61.7468 151.212 62.0668 151.132 62.4028C151.068 62.7228 151.012 63.0108 150.964 63.2668C150.804 63.2828 150.572 63.2988 150.268 63.3148C149.98 63.3148 149.668 63.3228 149.332 63.3388C148.996 63.3388 148.652 63.3388 148.3 63.3388C147.964 63.3388 147.668 63.3388 147.412 63.3388L146.572 67.6348C147.068 67.6028 147.532 67.5788 147.964 67.5628C148.316 67.5468 148.676 67.5388 149.044 67.5388C149.412 67.5388 149.684 67.5308 149.86 67.5148C149.796 67.9628 149.732 68.4028 149.668 68.8348C149.62 69.2668 149.556 69.7068 149.476 70.1548C149.316 70.1708 149.052 70.1868 148.684 70.2028C148.332 70.2028 147.972 70.2108 147.604 70.2268C147.188 70.2428 146.732 70.2588 146.236 70.2748L145.42 74.6908L148.924 74.1388L148.684 76.8748L140.932 78.0748ZM156.415 77.6908L157.519 72.8668C157.519 72.1788 157.503 71.4348 157.471 70.6348C157.455 69.8188 157.423 69.0028 157.375 68.1868C157.327 67.3708 157.279 66.5868 157.231 65.8348C157.183 65.0668 157.143 64.3948 157.111 63.8188C157.079 63.2268 157.047 62.7548 157.015 62.4028C156.983 62.0508 156.967 61.8748 156.967 61.8748L160.879 60.3868V63.3148C160.879 63.7148 160.879 64.1228 160.879 64.5388C160.879 64.9548 160.871 65.3628 160.855 65.7628C160.855 66.1628 160.855 66.5388 160.855 66.8908C160.855 67.2428 160.855 67.5388 160.855 67.7788C161.063 67.2348 161.311 66.5628 161.599 65.7628C161.903 64.9628 162.183 64.1868 162.439 63.4348C162.743 62.5548 163.055 61.6268 163.375 60.6508L167.095 61.4908C166.407 62.8668 165.735 64.2348 165.079 65.5948C164.807 66.1868 164.519 66.8028 164.215 67.4428C163.911 68.0668 163.607 68.6988 163.303 69.3388C162.999 69.9628 162.703 70.5708 162.415 71.1628C162.127 71.7548 161.863 72.3068 161.623 72.8188C161.543 73.2348 161.439 73.6908 161.311 74.1868C161.199 74.6828 161.087 75.1548 160.975 75.6028C160.831 76.1308 160.679 76.6588 160.519 77.1868L156.415 77.6908ZM177.183 65.0668C177.183 66.3788 177.039 67.6188 176.751 68.7868C176.479 69.9388 176.111 71.0028 175.647 71.9788C175.183 72.9388 174.639 73.8028 174.015 74.5708C173.407 75.3228 172.767 75.9708 172.095 76.5148C171.423 77.0428 170.743 77.4508 170.055 77.7388C169.367 78.0108 168.711 78.1468 168.087 78.1468C167.559 78.1468 167.079 78.0508 166.647 77.8588C166.215 77.6508 165.839 77.3548 165.519 76.9708C165.199 76.5708 164.943 76.0668 164.751 75.4588C164.575 74.8348 164.487 74.0908 164.487 73.2268C164.487 72.3308 164.599 71.3868 164.823 70.3948C165.047 69.4028 165.351 68.4188 165.735 67.4428C166.119 66.4668 166.591 65.5388 167.151 64.6588C167.711 63.7788 168.327 63.0028 168.999 62.3308C169.671 61.6428 170.391 61.0988 171.159 60.6988C171.927 60.2988 172.727 60.0988 173.559 60.0988C174.279 60.0988 174.871 60.2508 175.335 60.5548C175.815 60.8428 176.183 61.2268 176.439 61.7068C176.711 62.1708 176.903 62.6988 177.015 63.2908C177.127 63.8828 177.183 64.4748 177.183 65.0668ZM168.063 72.6028C168.063 72.7788 168.095 72.9628 168.159 73.1548C168.223 73.3468 168.311 73.5148 168.423 73.6588C168.535 73.8028 168.671 73.9308 168.831 74.0428C169.007 74.1388 169.191 74.1868 169.383 74.1868C170.103 74.1868 170.743 73.9388 171.303 73.4428C171.863 72.9468 172.327 72.3388 172.695 71.6188C173.063 70.8988 173.343 70.1308 173.535 69.3148C173.743 68.4988 173.847 67.7548 173.847 67.0828C173.847 66.8908 173.831 66.6828 173.799 66.4588C173.783 66.2348 173.735 66.0268 173.655 65.8348C173.591 65.6428 173.479 65.4828 173.319 65.3548C173.175 65.2108 172.975 65.1388 172.719 65.1388C172.207 65.1388 171.735 65.2668 171.303 65.5228C170.871 65.7788 170.479 66.1228 170.127 66.5548C169.791 66.9708 169.495 67.4508 169.239 67.9948C168.983 68.5228 168.759 69.0668 168.567 69.6268C168.391 70.1708 168.263 70.7068 168.183 71.2348C168.103 71.7628 168.063 72.2188 168.063 72.6028ZM186.043 73.3708C185.819 74.2828 185.499 75.0588 185.083 75.6988C184.683 76.3388 184.203 76.8668 183.643 77.2828C183.099 77.6988 182.515 78.0028 181.891 78.1948C181.267 78.3868 180.643 78.4828 180.019 78.4828C179.651 78.4828 179.275 78.4188 178.891 78.2908C178.507 78.1788 178.163 78.0028 177.859 77.7628C177.555 77.5228 177.299 77.2188 177.091 76.8508C176.899 76.4828 176.803 76.0508 176.803 75.5548C176.803 75.4908 176.803 75.4268 176.803 75.3628C176.803 75.2988 176.811 75.2348 176.827 75.1708C176.891 74.5148 176.995 73.7228 177.139 72.7948C177.283 71.8668 177.435 70.8988 177.595 69.8908C177.755 68.8828 177.931 67.8748 178.123 66.8668C178.315 65.8428 178.483 64.9148 178.627 64.0828C178.787 63.2508 178.923 62.5628 179.035 62.0188C179.147 61.4588 179.219 61.1148 179.251 60.9868C179.587 60.9548 179.987 60.9148 180.451 60.8668C180.915 60.8188 181.347 60.7788 181.747 60.7468C182.243 60.6988 182.731 60.6508 183.211 60.6028C182.795 62.5388 182.427 64.2908 182.107 65.8588C181.963 66.5308 181.819 67.2028 181.675 67.8748C181.547 68.5468 181.419 69.1628 181.291 69.7228C181.179 70.2828 181.075 70.7708 180.979 71.1868C180.899 71.5868 180.827 71.9148 180.763 72.1708C180.715 72.4268 180.651 72.7548 180.571 73.1548C180.507 73.5388 180.475 73.8908 180.475 74.2108C180.475 74.4668 180.539 74.6828 180.667 74.8588C180.795 75.0188 180.955 75.0988 181.147 75.0988C181.419 75.0988 181.643 74.9948 181.819 74.7868C181.995 74.5628 182.139 74.2988 182.251 73.9948C182.379 73.6908 182.467 73.3868 182.515 73.0828C182.579 72.7628 182.635 72.5148 182.683 72.3388C182.779 71.8748 182.883 71.3628 182.995 70.8028C183.123 70.2268 183.243 69.6348 183.355 69.0268C183.483 68.4028 183.603 67.7708 183.715 67.1308C183.843 66.4908 183.963 65.8668 184.075 65.2588C184.347 63.8508 184.611 62.3948 184.867 60.8908L188.515 60.6508C188.515 60.6508 188.475 60.8588 188.395 61.2748C188.315 61.6908 188.211 62.2428 188.083 62.9308C187.955 63.6188 187.811 64.4028 187.651 65.2828C187.507 66.1628 187.339 67.0828 187.147 68.0428C186.955 68.9868 186.763 69.9228 186.571 70.8508C186.395 71.7628 186.219 72.6028 186.043 73.3708ZM186.689 78.0748C187.121 75.9468 187.537 73.8668 187.937 71.8348C188.081 70.9708 188.241 70.0748 188.417 69.1468C188.593 68.2028 188.753 67.2748 188.897 66.3628C189.057 65.4348 189.201 64.5468 189.329 63.6988C189.473 62.8348 189.585 62.0508 189.665 61.3468C190.577 61.0588 191.561 60.8508 192.617 60.7228C193.673 60.5788 194.721 60.5068 195.761 60.5068C196.385 60.5068 196.897 60.5788 197.297 60.7228C197.713 60.8668 198.033 61.0748 198.257 61.3468C198.497 61.6028 198.665 61.9068 198.761 62.2588C198.857 62.6108 198.905 63.0028 198.905 63.4348C198.905 64.0748 198.793 64.7068 198.569 65.3308C198.345 65.9388 198.041 66.5228 197.657 67.0828C197.289 67.6268 196.857 68.1308 196.361 68.5948C195.881 69.0428 195.361 69.4108 194.801 69.6988C195.089 70.3388 195.393 71.0428 195.713 71.8108C196.049 72.5628 196.361 73.2828 196.649 73.9708C196.969 74.7708 197.297 75.5708 197.633 76.3708L193.913 77.6668C193.593 76.5628 193.305 75.5228 193.049 74.5468C192.937 74.1468 192.825 73.7388 192.713 73.3228C192.601 72.8908 192.497 72.4908 192.401 72.1228C192.305 71.7388 192.225 71.4028 192.161 71.1148C192.097 70.8268 192.057 70.6028 192.041 70.4428L191.729 70.5388C191.633 71.0508 191.513 71.6748 191.369 72.4108C191.241 73.1468 191.121 73.8588 191.009 74.5468C190.865 75.3628 190.721 76.2028 190.577 77.0668L186.689 78.0748ZM192.329 67.6588C192.633 67.6268 193.001 67.4988 193.433 67.2748C193.881 67.0508 194.305 66.7868 194.705 66.4828C195.105 66.1628 195.449 65.8348 195.737 65.4988C196.025 65.1628 196.169 64.8668 196.169 64.6108C196.169 64.4348 196.113 64.2988 196.001 64.2028C195.889 64.0908 195.729 64.0108 195.521 63.9628C195.329 63.8988 195.113 63.8588 194.873 63.8428C194.633 63.8268 194.385 63.8188 194.129 63.8188C193.953 63.8188 193.769 63.8268 193.577 63.8428C193.401 63.8428 193.241 63.8428 193.097 63.8428L192.329 67.6588ZM263.47 78.0988C263.886 75.8908 264.294 73.7228 264.694 71.5948C264.838 70.6988 264.998 69.7708 265.174 68.8108C265.35 67.8348 265.518 66.8748 265.678 65.9308C265.838 64.9868 265.99 64.0748 266.134 63.1948C266.278 62.2988 266.406 61.4828 266.518 60.7468L270.406 60.4828C270.134 61.6028 269.862 62.7708 269.59 63.9868C269.334 65.2028 269.094 66.3868 268.87 67.5388L271.246 67.2748C271.47 66.1388 271.67 65.0428 271.846 63.9868C272.022 62.9148 272.254 61.8108 272.542 60.6748C272.91 60.6108 273.318 60.5628 273.766 60.5308C274.214 60.4828 274.63 60.4428 275.014 60.4108C275.398 60.3788 275.718 60.3548 275.974 60.3388C276.246 60.3068 276.382 60.2908 276.382 60.2908C276.158 61.0108 275.942 61.8028 275.734 62.6668C275.542 63.5148 275.35 64.4028 275.158 65.3308C274.966 66.2428 274.782 67.1708 274.606 68.1148C274.43 69.0588 274.27 69.9548 274.126 70.8028C273.774 72.8348 273.446 74.9148 273.142 77.0428L269.398 77.4748C269.606 76.5148 269.79 75.5788 269.95 74.6668C270.11 73.8988 270.27 73.0988 270.43 72.2668C270.606 71.4348 270.742 70.7228 270.838 70.1308L268.51 70.3468C268.398 70.9548 268.262 71.6588 268.102 72.4588C267.958 73.2588 267.822 74.0188 267.694 74.7388C267.518 75.6028 267.342 76.4668 267.166 77.3308L263.47 78.0988ZM274.543 78.0748L277.687 61.0108L285.271 60.3628C285.159 60.7148 285.063 61.0748 284.983 61.4428C284.903 61.7468 284.823 62.0668 284.743 62.4028C284.679 62.7228 284.623 63.0108 284.575 63.2668C284.415 63.2828 284.183 63.2988 283.879 63.3148C283.591 63.3148 283.279 63.3228 282.943 63.3388C282.607 63.3388 282.263 63.3388 281.911 63.3388C281.575 63.3388 281.279 63.3388 281.023 63.3388L280.183 67.6348C280.679 67.6028 281.143 67.5788 281.575 67.5628C281.927 67.5468 282.287 67.5388 282.655 67.5388C283.023 67.5388 283.295 67.5308 283.471 67.5148C283.407 67.9628 283.343 68.4028 283.279 68.8348C283.231 69.2668 283.167 69.7068 283.087 70.1548C282.927 70.1708 282.663 70.1868 282.295 70.2028C281.943 70.2028 281.583 70.2108 281.215 70.2268C280.799 70.2428 280.343 70.2588 279.847 70.2748L279.031 74.6908L282.535 74.1388L282.295 76.8748L274.543 78.0748ZM283.106 78.0748C283.538 75.9468 283.954 73.8668 284.354 71.8348C284.498 70.9708 284.658 70.0748 284.834 69.1468C285.01 68.2028 285.17 67.2748 285.314 66.3628C285.474 65.4348 285.618 64.5468 285.746 63.6988C285.89 62.8348 286.002 62.0508 286.082 61.3468C286.994 61.0588 287.978 60.8508 289.034 60.7228C290.09 60.5788 291.138 60.5068 292.178 60.5068C292.802 60.5068 293.314 60.5788 293.714 60.7228C294.13 60.8668 294.45 61.0748 294.674 61.3468C294.914 61.6028 295.082 61.9068 295.178 62.2588C295.274 62.6108 295.322 63.0028 295.322 63.4348C295.322 64.0748 295.21 64.7068 294.986 65.3308C294.762 65.9388 294.458 66.5228 294.074 67.0828C293.706 67.6268 293.274 68.1308 292.778 68.5948C292.298 69.0428 291.778 69.4108 291.218 69.6988C291.506 70.3388 291.81 71.0428 292.13 71.8108C292.466 72.5628 292.778 73.2828 293.066 73.9708C293.386 74.7708 293.714 75.5708 294.05 76.3708L290.33 77.6668C290.01 76.5628 289.722 75.5228 289.466 74.5468C289.354 74.1468 289.242 73.7388 289.13 73.3228C289.018 72.8908 288.914 72.4908 288.818 72.1228C288.722 71.7388 288.642 71.4028 288.578 71.1148C288.514 70.8268 288.474 70.6028 288.458 70.4428L288.146 70.5388C288.05 71.0508 287.93 71.6748 287.786 72.4108C287.658 73.1468 287.538 73.8588 287.426 74.5468C287.282 75.3628 287.138 76.2028 286.994 77.0668L283.106 78.0748ZM288.746 67.6588C289.05 67.6268 289.418 67.4988 289.85 67.2748C290.298 67.0508 290.722 66.7868 291.122 66.4828C291.522 66.1628 291.866 65.8348 292.154 65.4988C292.442 65.1628 292.586 64.8668 292.586 64.6108C292.586 64.4348 292.53 64.2988 292.418 64.2028C292.306 64.0908 292.146 64.0108 291.938 63.9628C291.746 63.8988 291.53 63.8588 291.29 63.8428C291.05 63.8268 290.802 63.8188 290.546 63.8188C290.37 63.8188 290.186 63.8268 289.994 63.8428C289.818 63.8428 289.658 63.8428 289.514 63.8428L288.746 67.6588ZM294.347 78.0748L297.491 61.0108L305.075 60.3628C304.963 60.7148 304.867 61.0748 304.787 61.4428C304.707 61.7468 304.627 62.0668 304.547 62.4028C304.483 62.7228 304.427 63.0108 304.379 63.2668C304.219 63.2828 303.987 63.2988 303.683 63.3148C303.395 63.3148 303.083 63.3228 302.747 63.3388C302.411 63.3388 302.067 63.3388 301.715 63.3388C301.379 63.3388 301.083 63.3388 300.827 63.3388L299.987 67.6348C300.483 67.6028 300.947 67.5788 301.379 67.5628C301.731 67.5468 302.091 67.5388 302.459 67.5388C302.827 67.5388 303.099 67.5308 303.275 67.5148C303.211 67.9628 303.147 68.4028 303.083 68.8348C303.035 69.2668 302.971 69.7068 302.891 70.1548C302.731 70.1708 302.467 70.1868 302.099 70.2028C301.747 70.2028 301.387 70.2108 301.019 70.2268C300.603 70.2428 300.147 70.2588 299.651 70.2748L298.835 74.6908L302.339 74.1388L302.099 76.8748L294.347 78.0748Z" fill="white"/>
<path d="M213.753 72.0268C213.753 72.6828 213.617 73.2908 213.345 73.8508C213.073 74.4108 212.705 74.9228 212.241 75.3868C211.777 75.8348 211.233 76.2348 210.609 76.5868C210.001 76.9228 209.353 77.2108 208.665 77.4508C207.993 77.6748 207.297 77.8508 206.577 77.9788C205.873 78.0908 205.193 78.1468 204.537 78.1468C203.945 78.1468 203.393 78.0988 202.881 78.0028C203.649 75.2028 204.257 72.3868 204.705 69.5548C205.169 66.7068 205.609 63.8428 206.025 60.9628C206.857 60.7868 207.721 60.6348 208.617 60.5068C209.513 60.3628 210.441 60.2908 211.401 60.2908C211.801 60.2908 212.225 60.3388 212.673 60.4348C213.121 60.5308 213.529 60.7068 213.897 60.9628C214.265 61.2188 214.569 61.5548 214.809 61.9708C215.065 62.3868 215.193 62.9148 215.193 63.5548C215.193 64.1628 215.089 64.7308 214.881 65.2588C214.689 65.7868 214.433 66.2668 214.113 66.6988C213.809 67.1308 213.457 67.5068 213.057 67.8268C212.657 68.1308 212.249 68.3628 211.833 68.5228C212.041 68.6348 212.257 68.7948 212.481 69.0028C212.705 69.2108 212.913 69.4588 213.105 69.7468C213.297 70.0188 213.449 70.3468 213.561 70.7308C213.689 71.1148 213.753 71.5468 213.753 72.0268ZM208.257 69.5308C208.193 69.9148 208.129 70.2588 208.065 70.5628C208.017 70.8508 207.969 71.1308 207.921 71.4028C207.873 71.6748 207.817 71.9628 207.753 72.2668C207.705 72.5548 207.649 72.8988 207.585 73.2988C207.889 73.2668 208.233 73.2108 208.617 73.1308C209.001 73.0508 209.369 72.9308 209.721 72.7708C210.073 72.5948 210.369 72.3708 210.609 72.0988C210.849 71.8108 210.969 71.4668 210.969 71.0668C210.969 70.7788 210.889 70.5388 210.729 70.3468C210.585 70.1548 210.393 69.9948 210.153 69.8668C209.929 69.7388 209.681 69.6508 209.409 69.6028C209.137 69.5388 208.881 69.5068 208.641 69.5068C208.561 69.5068 208.489 69.5068 208.425 69.5068C208.377 69.5068 208.321 69.5148 208.257 69.5308ZM209.337 63.7228C209.305 63.8988 209.265 64.1068 209.217 64.3468C209.185 64.5868 209.145 64.8428 209.097 65.1148C209.049 65.3708 208.993 65.6268 208.929 65.8828C208.881 66.1388 208.841 66.3628 208.809 66.5548C209.161 66.4908 209.513 66.4028 209.865 66.2908C210.217 66.1788 210.529 66.0588 210.801 65.9308C211.089 65.7868 211.313 65.6348 211.473 65.4748C211.649 65.3148 211.737 65.1388 211.737 64.9468C211.737 64.7068 211.665 64.5148 211.521 64.3708C211.377 64.2108 211.185 64.0828 210.945 63.9868C210.721 63.8908 210.481 63.8268 210.225 63.7948C209.985 63.7468 209.769 63.7228 209.577 63.7228H209.337ZM213.746 78.0748C214.178 75.9468 214.594 73.8668 214.994 71.8348C215.138 70.9708 215.298 70.0748 215.474 69.1468C215.65 68.2028 215.81 67.2748 215.954 66.3628C216.114 65.4348 216.258 64.5468 216.386 63.6988C216.53 62.8348 216.642 62.0508 216.722 61.3468C217.634 61.0588 218.618 60.8508 219.674 60.7228C220.73 60.5788 221.778 60.5068 222.818 60.5068C223.442 60.5068 223.954 60.5788 224.354 60.7228C224.77 60.8668 225.09 61.0748 225.314 61.3468C225.554 61.6028 225.722 61.9068 225.818 62.2588C225.914 62.6108 225.962 63.0028 225.962 63.4348C225.962 64.0748 225.85 64.7068 225.626 65.3308C225.402 65.9388 225.098 66.5228 224.714 67.0828C224.346 67.6268 223.914 68.1308 223.418 68.5948C222.938 69.0428 222.418 69.4108 221.858 69.6988C222.146 70.3388 222.45 71.0428 222.77 71.8108C223.106 72.5628 223.418 73.2828 223.706 73.9708C224.026 74.7708 224.354 75.5708 224.69 76.3708L220.97 77.6668C220.65 76.5628 220.362 75.5228 220.106 74.5468C219.994 74.1468 219.882 73.7388 219.77 73.3228C219.658 72.8908 219.554 72.4908 219.458 72.1228C219.362 71.7388 219.282 71.4028 219.218 71.1148C219.154 70.8268 219.114 70.6028 219.098 70.4428L218.786 70.5388C218.69 71.0508 218.57 71.6748 218.426 72.4108C218.298 73.1468 218.178 73.8588 218.066 74.5468C217.922 75.3628 217.778 76.2028 217.634 77.0668L213.746 78.0748ZM219.386 67.6588C219.69 67.6268 220.058 67.4988 220.49 67.2748C220.938 67.0508 221.362 66.7868 221.762 66.4828C222.162 66.1628 222.506 65.8348 222.794 65.4988C223.082 65.1628 223.226 64.8668 223.226 64.6108C223.226 64.4348 223.17 64.2988 223.058 64.2028C222.946 64.0908 222.786 64.0108 222.578 63.9628C222.386 63.8988 222.17 63.8588 221.93 63.8428C221.69 63.8268 221.442 63.8188 221.186 63.8188C221.01 63.8188 220.826 63.8268 220.634 63.8428C220.458 63.8428 220.298 63.8428 220.154 63.8428L219.386 67.6588ZM233.627 77.5708C233.227 77.6348 232.787 77.7068 232.307 77.7868C231.827 77.8668 231.395 77.9388 231.011 78.0028C231.075 77.4748 231.139 76.9548 231.203 76.4428C231.251 75.9948 231.291 75.5468 231.323 75.0988C231.371 74.6508 231.411 74.2668 231.443 73.9468H229.355L228.395 77.4028C228.043 77.4508 227.627 77.5068 227.147 77.5708C226.667 77.6188 226.219 77.6668 225.803 77.7148C225.291 77.7788 224.787 77.8428 224.291 77.9068C224.931 75.7788 225.563 73.6828 226.187 71.6188C226.443 70.7548 226.707 69.8508 226.979 68.9068C227.267 67.9628 227.547 67.0268 227.819 66.0988C228.107 65.1548 228.379 64.2508 228.635 63.3868C228.891 62.5228 229.115 61.7308 229.307 61.0108C230.395 60.9308 231.499 60.8348 232.619 60.7228C233.755 60.6108 234.859 60.4588 235.931 60.2668C235.883 60.7788 235.827 61.4188 235.763 62.1868C235.715 62.9388 235.667 63.7628 235.619 64.6588C235.571 65.5548 235.523 66.4908 235.475 67.4668C235.427 68.4428 235.379 69.4028 235.331 70.3468C235.251 72.5548 235.163 74.8988 235.067 77.3788C234.587 77.4588 234.107 77.5228 233.627 77.5708ZM229.931 71.5468C229.995 71.5468 230.107 71.5468 230.267 71.5468C230.443 71.5308 230.619 71.5228 230.795 71.5228C230.987 71.5068 231.163 71.4988 231.323 71.4988C231.483 71.4828 231.595 71.4668 231.659 71.4508C231.659 71.3548 231.667 71.1948 231.683 70.9708C231.715 70.7308 231.739 70.4668 231.755 70.1788C231.787 69.8748 231.819 69.5468 231.851 69.1948C231.883 68.8428 231.915 68.4988 231.947 68.1628C232.011 67.3468 232.091 66.4668 232.187 65.5228L232.331 63.4348L231.971 63.4588L231.419 65.5228L229.931 71.5468ZM235.801 78.1708C236.249 75.9148 236.681 73.7148 237.097 71.5708C237.257 70.6748 237.425 69.7388 237.601 68.7628C237.793 67.7708 237.969 66.8028 238.129 65.8588C238.289 64.8988 238.433 63.9788 238.561 63.0988C238.705 62.2028 238.817 61.3868 238.897 60.6508C239.393 60.6188 239.873 60.5868 240.337 60.5548C240.753 60.5228 241.177 60.4988 241.609 60.4828C242.041 60.4508 242.425 60.4188 242.761 60.3868C242.969 61.6188 243.153 62.7948 243.313 63.9148C243.393 64.3948 243.473 64.8988 243.553 65.4268C243.649 65.9388 243.737 66.4348 243.817 66.9148C243.897 67.3948 243.977 67.8588 244.057 68.3068C244.137 68.7388 244.217 69.1228 244.297 69.4588C244.361 69.1228 244.433 68.7388 244.513 68.3068C244.593 67.8588 244.681 67.3948 244.777 66.9148C244.873 66.4188 244.969 65.9148 245.065 65.4028C245.177 64.8908 245.281 64.3948 245.377 63.9148C245.617 62.7948 245.865 61.6268 246.121 60.4108L249.049 60.0508C248.505 62.4508 248.025 64.7228 247.609 66.8668C247.417 67.7948 247.225 68.7308 247.033 69.6748C246.857 70.6188 246.689 71.5308 246.529 72.4108C246.369 73.2908 246.233 74.1068 246.121 74.8588C246.009 75.5948 245.921 76.2188 245.857 76.7308C245.809 76.7308 245.617 76.7708 245.281 76.8508C244.961 76.9148 244.585 76.9948 244.153 77.0908C243.737 77.1868 243.313 77.2908 242.881 77.4028C242.465 77.4988 242.153 77.5788 241.945 77.6428C241.833 76.3468 241.713 75.1148 241.585 73.9468C241.537 73.4508 241.481 72.9388 241.417 72.4108C241.353 71.8828 241.289 71.3788 241.225 70.8988C241.177 70.4188 241.121 69.9708 241.057 69.5548C241.009 69.1228 240.961 68.7628 240.913 68.4748C240.865 68.7628 240.801 69.1148 240.721 69.5308C240.641 69.9468 240.561 70.3948 240.481 70.8748C240.401 71.3388 240.321 71.8268 240.241 72.3388C240.161 72.8348 240.073 73.3228 239.977 73.8028C239.769 74.9388 239.545 76.1228 239.305 77.3548L235.801 78.1708ZM259.228 65.7868C259.228 66.6188 259.108 67.5068 258.868 68.4508C258.628 69.3788 258.292 70.3068 257.86 71.2348C257.428 72.1468 256.892 73.0268 256.252 73.8748C255.628 74.7068 254.916 75.4428 254.116 76.0828C253.316 76.7068 252.436 77.2108 251.476 77.5948C250.532 77.9788 249.524 78.1708 248.452 78.1708C248.228 78.1708 248.004 78.1548 247.78 78.1228C247.556 78.1068 247.332 78.0828 247.108 78.0508C247.54 75.8428 247.964 73.6908 248.38 71.5948C248.54 70.7148 248.708 69.8028 248.884 68.8588C249.06 67.8988 249.228 66.9548 249.388 66.0268C249.548 65.0988 249.7 64.2108 249.844 63.3628C250.004 62.5148 250.132 61.7468 250.228 61.0588C250.916 60.9308 251.612 60.8108 252.316 60.6988C253.02 60.5868 253.74 60.5308 254.476 60.5308C255.34 60.5308 256.068 60.6668 256.66 60.9388C257.268 61.2108 257.756 61.5868 258.124 62.0668C258.508 62.5468 258.788 63.1068 258.964 63.7468C259.14 64.3868 259.228 65.0668 259.228 65.7868ZM253.564 63.9148C253.388 64.8588 253.204 65.7628 253.012 66.6268C252.82 67.4908 252.628 68.3628 252.436 69.2428C252.244 70.1228 252.052 71.0428 251.86 72.0028C251.668 72.9628 251.484 74.0108 251.308 75.1468C251.692 74.8908 252.06 74.5468 252.412 74.1148C252.78 73.6668 253.124 73.1548 253.444 72.5788C253.764 72.0028 254.052 71.3948 254.308 70.7548C254.58 70.1148 254.812 69.4908 255.004 68.8828C255.196 68.2748 255.34 67.7068 255.436 67.1788C255.548 66.6508 255.604 66.1948 255.604 65.8108C255.604 65.2188 255.436 64.7548 255.1 64.4188C254.78 64.0828 254.268 63.9148 253.564 63.9148Z" fill="#5BE49B"/>
</svg>
