<svg width="24" height="24" viewBox="0 0 24 24" fill="none" xmlns="http://www.w3.org/2000/svg">
<path opacity="0.5" d="M6.29504 19.0001C6.29493 19.1534 6.34184 19.3031 6.42944 19.429C6.51704 19.5549 6.64113 19.6509 6.78497 19.7041C6.92882 19.7573 7.08552 19.7651 7.23394 19.7265C7.38236 19.6878 7.51537 19.6046 7.61504 19.4881L13.615 12.4881C13.7315 12.3521 13.7955 12.1791 13.7955 12.0001C13.7955 11.8211 13.7315 11.648 13.615 11.5121L7.61504 4.51207C7.51537 4.39551 7.38236 4.31231 7.23394 4.27369C7.08552 4.23506 6.92882 4.24287 6.78497 4.29605C6.64113 4.34923 6.51704 4.44523 6.42944 4.57111C6.34184 4.69699 6.29493 4.84671 6.29504 5.00007V19.0001Z" fill="#2B4EFF"/>
<path fill-rule="evenodd" clip-rule="evenodd" d="M10.557 19.5699C10.4822 19.5058 10.4208 19.4276 10.3762 19.3397C10.3316 19.2518 10.3048 19.156 10.2973 19.0577C10.2898 18.9595 10.3017 18.8607 10.3324 18.7671C10.363 18.6734 10.4118 18.5867 10.476 18.5119L16.057 11.9999L10.476 5.48795C10.4112 5.41327 10.3617 5.3265 10.3305 5.23263C10.2993 5.13876 10.287 5.03964 10.2943 4.94099C10.3015 4.84234 10.3282 4.7461 10.3729 4.65782C10.4175 4.56953 10.4791 4.49095 10.5542 4.42658C10.6293 4.36222 10.7164 4.31335 10.8105 4.28279C10.9046 4.25222 11.0038 4.24058 11.1024 4.24851C11.201 4.25645 11.2971 4.28381 11.385 4.32902C11.473 4.37423 11.5512 4.4364 11.615 4.51195L17.615 11.5119C17.7315 11.6479 17.7955 11.821 17.7955 11.9999C17.7955 12.1789 17.7315 12.352 17.615 12.4879L11.615 19.4879C11.551 19.5628 11.4728 19.6244 11.3849 19.669C11.2971 19.7137 11.2013 19.7406 11.103 19.7482C11.0048 19.7558 10.906 19.744 10.8123 19.7134C10.7186 19.6828 10.6319 19.6341 10.557 19.5699Z" fill="#2B4EFF"/>
</svg>
