<svg width="24" height="24" viewBox="0 0 24 24" fill="none" xmlns="http://www.w3.org/2000/svg">
<path opacity="0.5" d="M6.29517 19.0001C6.29505 19.1534 6.34196 19.3031 6.42956 19.429C6.51716 19.5549 6.64125 19.6509 6.7851 19.7041C6.92895 19.7573 7.08564 19.7651 7.23406 19.7265C7.38248 19.6878 7.51549 19.6046 7.61517 19.4881L13.6152 12.4881C13.7316 12.3521 13.7956 12.1791 13.7956 12.0001C13.7956 11.8211 13.7316 11.648 13.6152 11.5121L7.61517 4.51207C7.51549 4.39551 7.38248 4.31231 7.23406 4.27369C7.08564 4.23506 6.92895 4.24287 6.7851 4.29605C6.64125 4.34923 6.51716 4.44523 6.42956 4.57111C6.34196 4.69699 6.29505 4.84671 6.29517 5.00007V19.0001Z" fill="#00B8D9"/>
<path fill-rule="evenodd" clip-rule="evenodd" d="M10.557 19.5701C10.4822 19.5059 10.4208 19.4277 10.3762 19.3398C10.3316 19.2519 10.3048 19.1561 10.2973 19.0579C10.2898 18.9596 10.3017 18.8608 10.3324 18.7672C10.363 18.6735 10.4118 18.5868 10.476 18.5121L16.057 12.0001L10.476 5.48807C10.4112 5.41339 10.3617 5.32662 10.3305 5.23275C10.2993 5.13888 10.287 5.03977 10.2943 4.94112C10.3015 4.84246 10.3282 4.74623 10.3729 4.65794C10.4175 4.56965 10.4791 4.49107 10.5542 4.4267C10.6293 4.36234 10.7164 4.31347 10.8105 4.28291C10.9046 4.25235 11.0038 4.2407 11.1024 4.24863C11.201 4.25657 11.2971 4.28393 11.385 4.32914C11.473 4.37435 11.5512 4.43652 11.615 4.51207L17.615 11.5121C17.7315 11.648 17.7955 11.8211 17.7955 12.0001C17.7955 12.1791 17.7315 12.3521 17.615 12.4881L11.615 19.4881C11.551 19.563 11.4728 19.6245 11.3849 19.6692C11.2971 19.7138 11.2013 19.7407 11.103 19.7483C11.0048 19.756 10.906 19.7441 10.8123 19.7135C10.7186 19.683 10.6319 19.6342 10.557 19.5701Z" fill="#00B8D9"/>
</svg>
