<svg width="61" height="61" viewBox="0 0 61 61" fill="none" xmlns="http://www.w3.org/2000/svg">
<path opacity="0.5" d="M16 48.2917C15.9997 48.6815 16.1189 49.062 16.3416 49.3819C16.5642 49.7019 16.8796 49.9459 17.2452 50.0811C17.6109 50.2162 18.0091 50.2361 18.3864 50.1379C18.7636 50.0397 19.1017 49.8282 19.355 49.532L34.605 31.7403C34.901 31.3949 35.0637 30.9549 35.0637 30.5C35.0637 30.0451 34.901 29.6051 34.605 29.2597L19.355 11.468C19.1017 11.1717 18.7636 10.9603 18.3864 10.8621C18.0091 10.7639 17.6109 10.7838 17.2452 10.9189C16.8796 11.0541 16.5642 11.2981 16.3416 11.6181C16.1189 11.938 15.9997 12.3185 16 12.7083V48.2917Z" fill="#DFE3E8"/>
<path fill-rule="evenodd" clip-rule="evenodd" d="M26.8325 49.7404C26.6423 49.5774 26.4861 49.3785 26.3728 49.1551C26.2595 48.9317 26.1914 48.6882 26.1723 48.4385C26.1532 48.1888 26.1834 47.9377 26.2614 47.6997C26.3393 47.4617 26.4634 47.2413 26.6266 47.0513L40.8116 30.4999L26.6266 13.9486C26.4617 13.7588 26.336 13.5383 26.2567 13.2997C26.1774 13.0611 26.1461 12.8092 26.1646 12.5584C26.183 12.3077 26.2509 12.0631 26.3643 11.8387C26.4777 11.6143 26.6344 11.4146 26.8253 11.251C27.0162 11.0874 27.2376 10.9632 27.4767 10.8855C27.7159 10.8078 27.968 10.7782 28.2186 10.7984C28.4692 10.8185 28.7133 10.8881 28.937 11.003C29.1606 11.1179 29.3592 11.2759 29.5215 11.4679L44.7715 29.2596C45.0676 29.6051 45.2303 30.045 45.2303 30.4999C45.2303 30.9549 45.0676 31.3948 44.7715 31.7403L29.5215 49.532C29.3587 49.7223 29.16 49.8787 28.9367 49.9922C28.7134 50.1057 28.4699 50.1741 28.2202 50.1935C27.9705 50.2128 27.7194 50.1828 27.4812 50.105C27.2431 50.0273 27.0227 49.9034 26.8325 49.7404Z" fill="#DFE3E8"/>
</svg>
